HIERARCHY
ROOT Hips
{
  OFFSET 0.000000 0.000000 0.000000
  CHANNELS 6 Xposition Yposition Zposition Xrotation Yrotation Zrotation
  JOINT Spine
  {
    OFFSET 1.153752 24.040563 -4.909010
    CHANNELS 3 Xrotation Yrotation Zrotation
    JOINT Chest
    {
      OFFSET 1.153752 24.040563 -4.909010
      CHANNELS 3 Xrotation Yrotation Zrotation
      JOINT Neck
      {
        OFFSET -0.089964 4.932851 -8.548945
        CHANNELS 3 Xrotation Yrotation Zrotation
        JOINT Head
        {
          OFFSET -0.981514 5.437762 -12.351498
          CHANNELS 3 Xrotation Yrotation Zrotation
          End Site
          {
            OFFSET -0.294454 1.631329 -3.705449
          }
        }
      }
      JOINT LeftCollar
      {
        OFFSET 3.000000 4.000000 0.000000
        CHANNELS 3 Xrotation Yrotation Zrotation
        JOINT LeftShoulder
        {
          OFFSET 16.168012 -6.279607 -4.266810
          CHANNELS 3 Xrotation Yrotation Zrotation
          JOINT LeftArm
          {
            OFFSET 6.545061 -21.632230 2.960170
            CHANNELS 3 Xrotation Yrotation Zrotation
            JOINT LeftForeArm
            {
              OFFSET 1.498368 -23.182161 2.338304
              CHANNELS 3 Xrotation Yrotation Zrotation
              JOINT LeftHand
              {
                OFFSET -1.465154 -3.436964 -0.741780
                CHANNELS 3 Xrotation Yrotation Zrotation
                End Site
                {
                  OFFSET -0.439546 -1.031089 -0.222534
                }
              }
            }
          }
        }
      }
      JOINT RightCollar
      {
        OFFSET -3.000000 4.000000 0.000000
        CHANNELS 3 Xrotation Yrotation Zrotation
        JOINT RightShoulder
        {
          OFFSET -16.168012 6.279607 4.266810
          CHANNELS 3 Xrotation Yrotation Zrotation
          JOINT RightArm
          {
            OFFSET -21.602294 -8.789214 -2.250702
            CHANNELS 3 Xrotation Yrotation Zrotation
            JOINT RightForeArm
            {
              OFFSET -22.892153 1.498261 -8.563673
              CHANNELS 3 Xrotation Yrotation Zrotation
              JOINT RightHand
              {
                OFFSET -1.659101 2.167831 -4.005455
                CHANNELS 3 Xrotation Yrotation Zrotation
                End Site
                {
                  OFFSET -0.497730 0.650349 -1.201637
                }
              }
            }
          }
        }
      }
    }
  }
  JOINT LeftUpLeg
  {
    OFFSET 8.955008 -0.525145 1.977289
    CHANNELS 3 Xrotation Yrotation Zrotation
    JOINT LeftLeg
    {
      OFFSET 1.504921 -41.558457 -0.051202
      CHANNELS 3 Xrotation Yrotation Zrotation
      JOINT LeftFoot
      {
        OFFSET -2.334462 -39.878169 12.105340
        CHANNELS 3 Xrotation Yrotation Zrotation
        End Site
        {
          OFFSET -0.700339 -11.963451 3.631602
        }
      }
    }
  }
  JOINT RightUpLeg
  {
    OFFSET -8.955008 0.525145 -1.977289
    CHANNELS 3 Xrotation Yrotation Zrotation
    JOINT RightLeg
    {
      OFFSET 2.492134 -34.880539 -0.332581
      CHANNELS 3 Xrotation Yrotation Zrotation
      JOINT RightFoot
      {
        OFFSET -1.650886 -42.546039 9.164183
        CHANNELS 3 Xrotation Yrotation Zrotation
        End Site
        {
          OFFSET -0.495266 -12.763812 2.749255
        }
      }
    }
  }
}
MOTION
Frames: 11
Frame Time: 0.083333
0.036304 60.090374 0.152072 -0.000284 -0.004302 -0.021132 0.000000 0.000000 0.000000 0.040292 0.007809 0.022717 -0.012815 -0.009575 -0.006461 -171.618772 -8.835792 -10.501665 -0.051876 0.033155 -0.100204 0.141689 -0.113284 -0.745739 -0.007819 0.089263 0.975860 0.000000 0.000000 0.000000 0.000000 0.000000 0.000000 -0.051876 0.033155 -0.100204 -0.079771 0.240974 -0.133828 0.152753 -0.097092 0.235733 0.000000 0.000000 0.000000 0.000000 0.000000 0.000000 0.603124 0.028701 -0.248552 -2.398496 -0.005117 0.030514 0.000000 0.000000 0.000000 2.731695 0.155542 1.410606 -9.089129 -0.429829 -4.122736 0.000000 0.000000 0.000000
0.070914 60.161025 0.254262 -0.000559 -0.004350 -0.021432 0.000000 0.000000 0.000000 0.041344 0.007911 0.023040 -0.013021 -0.009839 -0.006623 -171.622706 -8.841839 -10.502760 -0.052894 0.034010 -0.102464 0.159049 -0.095196 -0.675474 -0.001823 0.072341 0.888189 0.000000 0.000000 0.000000 0.000000 0.000000 0.000000 -0.052894 0.034010 -0.102464 -0.075383 0.229162 -0.127248 0.145690 -0.096788 0.225627 0.000000 0.000000 0.000000 0.000000 0.000000 0.000000 0.637493 0.029784 -0.214046 -2.405015 -0.002237 0.007223 0.000000 0.000000 0.000000 2.742600 0.157655 1.363493 -9.110925 -0.426994 -4.031279 0.000000 0.000000 0.000000
0.141134 60.289396 0.412216 -0.000577 -0.004350 -0.021434 0.000000 0.000000 0.000000 0.041392 0.007909 0.023041 -0.013027 -0.009846 -0.006628 -171.598541 -8.718728 -10.452507 -0.052928 0.034065 -0.102550 0.527895 -0.217693 -1.747463 -0.006507 0.152119 2.308134 0.000000 0.000000 0.000000 0.000000 0.000000 0.000000 -0.052928 0.034065 -0.102550 -0.200516 0.614971 -0.357199 0.396345 -0.275504 0.629233 0.000000 0.000000 0.000000 0.000000 0.000000 0.000000 1.158354 0.062848 -0.697082 -2.579368 -0.133996 0.327204 0.000000 0.000000 0.000000 2.436610 0.112171 2.509231 -8.416299 -0.578265 -6.407020 0.000000 0.000000 0.000000
0.197405 60.369980 0.488920 -0.007567 -0.011146 -0.056339 0.000000 0.000000 0.000000 0.114334 0.019595 0.060031 -0.032832 -0.029015 -0.018771 -171.592346 -8.670145 -10.415077 -0.140494 0.094986 -0.282634 1.040764 -0.189417 -2.239693 -0.058401 0.076816 2.972807 0.000000 0.000000 0.000000 0.000000 0.000000 0.000000 -0.140494 0.094986 -0.282634 -0.256114 0.791442 -0.551566 0.541292 -0.398164 0.934741 0.000000 0.000000 0.000000 0.000000 0.000000 0.000000 2.582519 0.127017 -0.785167 -4.205194 -0.280671 0.194452 0.000000 0.000000 0.000000 2.254223 0.084869 3.162809 -7.968821 -0.689568 -7.822132 0.000000 0.000000 0.000000
0.233075 60.412822 0.506214 -0.031027 -0.012599 -0.068910 0.000000 0.000000 0.000000 0.175813 0.020817 0.072013 -0.040405 -0.045163 -0.027946 -171.533870 -8.680494 -10.368899 -0.191148 0.151920 -0.412162 1.654280 -0.121735 -2.667640 -0.229080 -0.065430 3.510090 0.000000 0.000000 0.000000 0.000000 0.000000 0.000000 -0.191148 0.151920 -0.412162 -0.251577 0.763560 -0.789560 0.603984 -0.428019 1.230427 0.000000 0.000000 0.000000 0.000000 0.000000 0.000000 4.401612 0.201636 -0.776052 -7.021066 -0.434081 -0.120887 0.000000 0.000000 0.000000 2.144824 0.060718 3.586726 -7.668463 -0.766401 -8.777179 0.000000 0.000000 0.000000
0.257740 60.431962 0.435844 -0.065205 -0.007860 -0.053685 0.000000 0.000000 0.000000 0.248519 0.010810 0.053305 -0.044628 -0.048314 -0.030985 -171.371526 -8.748962 -10.281076 -0.224713 0.234366 -0.501666 2.312528 -0.012536 -2.953786 -0.297900 -0.242002 3.876776 0.000000 0.000000 0.000000 0.000000 0.000000 0.000000 -0.224713 0.234366 -0.501666 -0.226458 0.687924 -1.048383 0.635280 -0.425442 1.537719 0.000000 0.000000 0.000000 0.000000 0.000000 0.000000 4.440063 0.202322 -1.006780 -6.968470 -0.434872 0.192965 0.000000 0.000000 0.000000 2.076873 0.042000 3.850090 -7.510492 -0.810584 -9.376174 0.000000 0.000000 0.000000
0.290297 60.467120 0.206607 -0.095667 -0.001798 -0.031162 0.000000 0.000000 0.000000 0.320853 -0.008124 0.022861 -0.041518 -0.043515 -0.030265 -171.116366 -8.847530 -10.187734 -0.260098 0.321359 -0.576287 2.478287 0.045372 -2.978339 -0.316713 -0.286261 3.926724 0.000000 0.000000 0.000000 0.000000 0.000000 0.000000 -0.260098 0.321359 -0.576287 -0.179589 0.686539 -1.270146 0.621114 -0.424867 1.791973 0.000000 0.000000 0.000000 0.000000 0.000000 0.000000 4.461382 0.205070 -1.129661 -7.069521 -0.439782 0.341171 0.000000 0.000000 0.000000 1.968940 0.029755 4.065232 -7.488842 -0.836744 -9.832837 0.000000 0.000000 0.000000
0.328032 60.517129 -0.119666 -0.095029 0.000084 -0.021835 0.000000 0.000000 0.000000 0.372181 -0.010777 0.012544 -0.033985 -0.040434 -0.033077 -170.800262 -8.866736 -10.186921 -0.328508 0.309138 -0.618519 2.433610 0.083324 -2.954402 -0.445235 -0.274280 3.907455 0.000000 0.000000 0.000000 0.000000 0.000000 0.000000 -0.328508 0.309138 -0.618519 -0.139197 0.750876 -1.423238 0.621149 -0.435991 1.950749 0.000000 0.000000 0.000000 0.000000 0.000000 0.000000 4.441548 0.208014 -1.198770 -7.298189 -0.445682 0.397157 0.000000 0.000000 0.000000 1.809582 0.019292 4.303589 -7.586173 -0.861688 -10.337703 0.000000 0.000000 0.000000
0.369452 60.560026 -0.353343 -0.060193 -0.000276 -0.015473 0.000000 0.000000 0.000000 0.410451 -0.005189 0.008485 -0.026606 -0.042211 -0.040429 -170.536328 -8.576511 -10.417111 -0.428208 0.244239 -0.635209 2.174803 0.127589 -2.893419 -0.737250 -0.203523 3.822178 0.000000 0.000000 0.000000 0.000000 0.000000 0.000000 -0.428208 0.244239 -0.635209 -0.080576 0.898690 -1.553483 0.630758 -0.426707 2.060804 0.000000 0.000000 0.000000 0.000000 0.000000 0.000000 4.365774 0.217319 -1.243252 -7.695994 -0.449992 0.427192 0.000000 0.000000 0.000000 1.576663 0.013879 4.591082 -7.598689 -0.897684 -10.917761 0.000000 0.000000 0.000000
0.418999 60.579052 -0.389064 0.027693 -0.006343 -0.024629 0.000000 0.000000 0.000000 0.409121 0.010686 0.022444 -0.026299 -0.068885 -0.060104 -170.524889 -8.250414 -10.734159 -0.565294 0.093562 -0.627578 1.891553 0.105494 -2.859044 -1.074293 -0.132735 3.767695 0.000000 0.000000 0.000000 0.000000 0.000000 0.000000 -0.565294 0.093562 -0.627578 -0.069868 1.040117 -1.712274 0.662572 -0.441503 2.201975 0.000000 0.000000 0.000000 0.000000 0.000000 0.000000 4.287150 0.232009 -1.275787 -7.924205 -0.457451 0.475457 0.000000 0.000000 0.000000 1.420779 0.019055 4.754138 -7.527146 -0.929263 -11.233075 0.000000 0.000000 0.000000
0.468712 60.592589 -0.319044 0.113208 -0.016228 -0.053166 0.000000 0.000000 0.000000 0.380699 0.025989 0.053433 -0.034502 -0.119345 -0.087234 -170.657084 -8.138285 -10.782755 -0.647731 0.010082 -0.612768 1.788985 0.037596 -2.831200 -1.201887 -0.109558 3.774500 0.000000 0.000000 0.000000 0.000000 0.000000 0.000000 -0.647731 0.010082 -0.612768 -0.157319 1.201010 -1.749762 0.755314 -0.571366 2.277541 0.000000 0.000000 0.000000 0.000000 0.000000 0.000000 4.273591 0.251010 -1.310074 -7.898259 -0.466608 0.580168 0.000000 0.000000 0.000000 1.404601 0.032485 4.780475 -7.498233 -0.945117 -11.249279 0.000000 0.000000 0.000000
